# Blender 5.1.2
# www.blender.org
mtllib Untitled.mtl
o Chest_base
v 1.680518 1.605355 1.067070
v 1.699867 1.765296 1.080122
v 0.997699 1.765296 1.030776
v 0.989696 1.605355 1.018320
v 0.000000 0.799165 -1.079953
v 0.000000 0.799165 -0.940030
v -0.343328 0.799165 -0.940030
v -0.343328 0.799165 -1.079953
v -1.968814 1.605355 -1.067070
v -1.992898 1.765296 -1.080123
v -2.081064 1.752512 -1.079909
v -2.057094 1.593562 -1.066760
v 1.652292 0.969544 -0.910584
v 0.343328 0.939922 -0.940030
v 0.343328 0.799165 -0.940030
v 1.652293 0.769544 -0.910584
v 1.652292 0.969544 -1.109399
v 0.343328 0.939922 -1.079953
v 1.845066 -0.031555 0.000000
v 1.863780 0.907802 -0.000000
v 1.863781 0.907802 1.010143
v 1.845066 -0.031555 1.000000
v 1.968814 1.605355 -0.000000
v 1.992898 1.765296 -0.000000
v 1.992898 1.765296 1.080122
v 1.968814 1.605355 1.067070
v 1.968814 1.605355 -1.067070
v 1.992898 1.765296 -1.080123
v -0.320917 1.605355 0.996119
v -0.989696 1.605355 1.018320
v -0.954794 0.907802 0.963994
v -0.286013 0.907802 0.942978
v 0.000000 0.939922 -1.079953
v 0.000000 0.939922 -0.940030
v -1.968814 1.605355 -0.000000
v -1.968814 1.605355 1.067070
v -1.992898 1.765296 1.080122
v -1.992898 1.765296 -0.000000
v -1.652293 0.769544 1.109399
v -1.652292 0.969544 1.109399
v -1.652292 0.969544 0.910584
v -1.652293 0.769544 0.910584
v 0.000000 0.099118 -0.000000
v 0.000000 0.099118 -0.761856
v -1.642520 0.099118 -0.816120
v -1.642520 0.099118 -0.000000
v -1.680518 1.605355 1.067070
v -0.997699 1.765296 1.030776
v -1.699867 1.765296 1.080122
v 1.581110 -0.122130 -1.088699
v 1.596134 0.902158 -1.136790
v 1.952549 0.894206 -1.136042
v 1.934150 -0.121986 -1.089335
v 1.581110 -0.031555 1.000000
v 1.596134 0.907802 1.010143
v 0.954794 0.907802 0.963994
v 0.948611 -0.031555 0.954314
v 0.320917 1.605355 0.996119
v 0.286013 0.907802 0.942978
v -1.845066 -0.031555 0.000000
v -1.845066 -0.031555 1.000000
v -1.863781 0.907802 1.010143
v -1.863780 0.907802 -0.000000
v 0.279845 -0.031555 0.933509
v -1.853178 1.765296 -0.953747
v 0.000000 1.765296 -0.890332
v 1.934150 -0.032392 -0.999630
v 1.952553 0.900330 -1.009414
v -1.680291 1.596282 1.193507
v -1.699587 1.755436 1.206511
v -2.080734 1.742736 1.206305
v -2.056824 1.584467 1.193199
v -0.343328 0.939922 -0.940030
v -1.680291 1.596282 -1.193507
v -1.596134 0.902158 -1.136790
v -1.952549 0.894206 -1.136042
v -2.056824 1.584466 -1.193200
v 0.948611 -0.031555 0.000000
v 0.279845 -0.031555 0.000000
v 0.343328 0.799165 -1.079953
v 2.056824 1.584466 -1.193200
v 2.057094 1.593562 -1.066760
v -1.866156 0.275032 -0.355690
v -1.870816 0.393498 -0.360041
v -1.923274 0.402246 -1.080123
v -1.918614 0.283780 -1.067070
v 1.581110 -0.031555 -1.000000
v 0.948611 -0.031555 -0.954314
v 0.954794 0.907802 -0.963993
v 1.596134 0.907802 -1.010143
v 0.320917 1.605355 -0.996120
v 0.989696 1.605355 -1.018320
v 0.286013 0.907802 -0.942978
v 1.581110 -0.122130 0.000000
v 1.934150 -0.121986 0.000000
v 1.934150 -0.121986 1.089335
v 1.581110 -0.122130 1.088699
v 1.952549 0.894206 1.136042
v 1.596134 0.902159 1.136791
v 1.680291 1.596282 1.193507
v 2.056824 1.584467 1.193199
v 2.080734 1.742736 1.206305
v 1.699587 1.755436 1.206511
v 1.680291 1.596282 -1.193507
v 1.845066 -0.031555 -1.000000
v 1.863781 0.907802 -1.010143
v -0.948611 -0.031555 0.000000
v -0.279845 -0.031555 0.000000
v -0.279845 -0.031555 0.933509
v -0.948611 -0.031555 0.954314
v 0.279845 -0.031555 -0.933509
v -1.952553 0.900331 1.009414
v -1.952549 0.894206 1.136042
v -2.057094 1.593562 1.066760
v -1.581110 -0.122130 1.088699
v -1.596134 0.902159 1.136791
v -1.934150 -0.121986 1.089335
v 1.934150 -0.032392 0.000000
v 1.934150 -0.032391 0.999630
v 1.952553 0.900331 1.009414
v 1.652293 0.769544 -1.109399
v 2.057094 1.593562 1.066760
v 2.081064 1.752512 1.079909
v -1.866156 0.275032 -0.000000
v -1.866156 0.275032 0.355690
v -1.870816 0.393498 0.360041
v -1.870816 0.393498 -0.000000
v -2.081064 1.752512 1.079909
v -1.863781 0.907802 -1.010143
v -1.952553 0.900330 -1.009414
v -0.343328 0.939922 -1.079953
v -1.853178 1.765296 0.953746
v 0.000000 1.765296 0.890331
v 0.000000 0.099118 0.761856
v -1.642520 0.099118 0.816120
v 1.699867 1.765296 -1.080123
v 1.699587 1.755436 -1.206511
v 1.680518 1.605355 -1.067070
v 2.081064 1.752512 -1.079909
v 2.080734 1.742735 -1.206305
v 0.328921 1.765296 1.008304
v -1.889717 0.965015 -0.000000
v -1.889717 0.965015 0.360041
v -1.827205 0.966130 0.360041
v -1.827205 0.966130 -0.000000
v 1.953206 1.410547 0.355690
v 1.977289 1.526633 0.360041
v 2.030472 1.526633 1.080122
v 2.006388 1.410547 1.067070
v 1.953206 1.410547 -0.000000
v 1.977289 1.526633 -0.000000
v 1.891943 1.423029 0.355690
v 1.945126 1.423029 1.067070
v 1.969209 1.539115 1.080122
v 1.916027 1.539115 0.360041
v 1.977289 1.526633 -0.360041
v 1.916027 1.539115 -0.360041
v 1.916027 1.539115 -0.000000
v 1.891943 1.423029 -0.000000
v 1.891943 1.423029 -0.355690
v 1.969209 1.539115 -1.080123
v 1.945126 1.423029 -1.067070
v 2.006388 1.410547 -1.067070
v 1.953206 1.410547 -0.355690
v 1.887181 0.846484 0.355690
v 1.889717 0.965015 0.360041
v 1.942010 0.974702 1.080123
v 1.939474 0.856171 1.067070
v 2.030472 1.526633 -1.080123
v 1.887181 0.846484 -0.000000
v 1.889717 0.965015 -0.000000
v 1.824670 0.847599 0.355690
v 1.876963 0.857286 1.067070
v 1.879498 0.975817 1.080123
v 1.827205 0.966130 0.360041
v 1.939474 0.856171 -1.067070
v 1.887181 0.846484 -0.355690
v 1.824670 0.847599 -0.355690
v 1.876963 0.857286 -1.067070
v 1.824670 0.847599 -0.000000
v 1.827205 0.966130 -0.000000
v 1.827205 0.966130 -0.360041
v 1.889717 0.965015 -0.360041
v 1.942010 0.974702 -1.080122
v 1.879498 0.975816 -1.080122
v 1.866156 0.275032 0.355690
v 1.870816 0.393498 0.360041
v 1.923274 0.402247 1.080123
v 1.918614 0.283780 1.067070
v 1.866156 0.275032 -0.355690
v 1.918614 0.283780 -1.067070
v 1.923274 0.402246 -1.080123
v 1.870816 0.393498 -0.360041
v 1.866156 0.275032 -0.000000
v 1.870816 0.393498 -0.000000
v 1.803674 0.277267 0.355690
v 1.856132 0.286015 1.067070
v 1.860792 0.404482 1.080123
v 1.808334 0.395733 0.360041
v 1.860792 0.404481 -1.080123
v 1.808334 0.395733 -0.360041
v 1.803674 0.277267 -0.000000
v 1.808334 0.395733 -0.000000
v 1.856132 0.286015 -1.067070
v 1.803674 0.277267 -0.355690
v -1.581110 -0.031555 1.000000
v -1.596134 0.907802 1.010143
v 1.652293 0.769544 1.109399
v 1.652293 0.769544 0.910584
v 1.652292 0.969544 0.910584
v 1.652292 0.969544 1.109399
v 0.343328 0.799165 1.079953
v 0.343328 0.799165 0.940030
v 0.343328 0.939923 0.940030
v 0.343328 0.939923 1.079953
v -1.942010 0.974702 1.080123
v -1.939474 0.856171 1.067070
v -1.876963 0.857286 1.067070
v -1.879498 0.975817 1.080123
v 0.000000 0.799165 1.079953
v 0.000000 0.799165 0.940030
v -1.923274 0.402247 1.080123
v -1.860792 0.404482 1.080123
v -1.808334 0.395733 0.360041
v 0.000000 0.939923 0.940030
v -1.824670 0.847599 -0.000000
v -1.824670 0.847599 -0.355690
v -1.827205 0.966130 -0.360041
v 0.000000 0.939923 1.079953
v 0.000000 1.765296 1.008304
v 0.000000 1.605355 0.996119
v -1.845066 -0.031555 -1.000000
v -1.934150 -0.032392 -0.999630
v -1.934150 -0.032392 0.000000
v -1.934150 -0.121986 0.000000
v -1.934150 -0.032391 0.999630
v -0.343328 0.939923 1.079953
v -0.343328 0.939923 0.940030
v -1.824670 0.847599 0.355690
v 0.000000 0.907802 0.942978
v -1.680518 1.605355 -1.067070
v -1.699867 1.765296 -1.080123
v -0.997699 1.765296 -1.030777
v -0.989696 1.605355 -1.018320
v 0.000000 -0.031555 0.933509
v -1.876963 0.857286 -1.067070
v -1.879498 0.975816 -1.080122
v 1.642520 0.099118 0.816120
v 1.642520 0.099118 -0.000000
v -1.853178 1.765296 -0.000000
v 1.853178 1.765296 -0.000000
v 1.853178 1.765296 0.953746
v 1.642520 0.099118 -0.816120
v -1.652293 0.769544 -0.910584
v -1.652293 0.769544 -1.109399
v 0.000000 1.765296 -1.008305
v -0.328921 1.765296 -1.008305
v -1.803674 0.277267 -0.000000
v -1.803674 0.277267 -0.355690
v -1.808334 0.395733 -0.360041
v -1.808334 0.395733 -0.000000
v -0.279845 -0.031555 -0.933509
v -0.286013 0.907802 -0.942978
v 0.000000 0.907802 -0.942978
v 0.000000 -0.031555 -0.933509
v -1.891943 1.423029 0.355690
v -1.916027 1.539115 0.360041
v -1.969209 1.539115 1.080122
v -1.945126 1.423029 1.067070
v -1.887181 0.846484 -0.000000
v -1.887181 0.846484 0.355690
v 0.000000 1.605355 -0.996120
v -0.320917 1.605355 -0.996120
v -1.581110 -0.122130 -1.088699
v -1.934150 -0.121986 -1.089335
v -1.581110 -0.122130 0.000000
v 1.853178 1.765296 -0.953747
v -1.953206 1.410547 0.355690
v -1.953206 1.410547 -0.000000
v -1.891943 1.423029 -0.000000
v -1.977289 1.526633 0.360041
v -1.977289 1.526633 -0.000000
v -2.006388 1.410547 1.067070
v -1.887181 0.846484 -0.355690
v -1.889717 0.965015 -0.360041
v -1.942010 0.974702 -1.080122
v -1.939474 0.856171 -1.067070
v -1.581110 -0.031555 -1.000000
v -1.596134 0.907802 -1.010143
v -0.954794 0.907802 -0.963993
v -0.948611 -0.031555 -0.954314
v -0.328921 1.765296 1.008304
v -1.803674 0.277267 0.355690
v -1.856132 0.286015 1.067070
v -1.699587 1.755436 -1.206511
v -2.030472 1.526633 1.080122
v -0.343328 0.799165 1.079953
v -0.343328 0.799165 0.940030
v -1.977289 1.526633 -0.360041
v -1.916027 1.539115 -0.360041
v -1.969209 1.539115 -1.080123
v -2.030472 1.526633 -1.080123
v -1.581110 -0.031555 0.000000
v -1.652292 0.969544 -1.109399
v -1.652292 0.969544 -0.910584
v -2.080734 1.742735 -1.206305
v -1.916027 1.539115 -0.000000
v -2.006388 1.410547 -1.067070
v -1.945126 1.423029 -1.067070
v -1.891943 1.423029 -0.355690
v -1.953206 1.410547 -0.355690
v 0.000000 -0.031555 0.000000
v -1.860792 0.404481 -1.080123
v -1.856132 0.286015 -1.067070
v 0.328921 1.765296 -1.008305
v -1.918614 0.283780 1.067070
v 0.997699 1.765296 -1.030777
v 1.581110 -0.031555 0.000000
v -1.992898 1.848493 1.080122
v -2.081064 1.835709 1.079909
v -2.080734 1.825933 1.206305
v -1.699587 1.838634 1.206511
v -1.699867 1.848493 1.080122
v -1.699867 1.848493 -1.080123
v -1.699587 1.838633 -1.206512
v -2.080734 1.825933 -1.206305
v -2.081064 1.835709 -1.079909
v -1.992898 1.848493 -1.080123
v 2.081064 1.835709 -1.079909
v 1.992898 1.848493 -1.080123
v 2.080734 1.825933 -1.206305
v 1.992898 1.848493 1.080122
v 1.699867 1.848493 1.080122
v 1.699587 1.838634 1.206511
v 2.080734 1.825933 1.206305
v 2.081064 1.835709 1.079909
v 1.699867 1.848493 -1.080123
v 1.699587 1.838633 -1.206512
v -0.290232 2.040954 1.202075
v -0.290232 2.040195 1.249949
v -0.259302 2.067345 1.250529
v -0.259302 2.068104 1.202655
v -0.328909 1.181122 1.189606
v -0.252104 1.298360 1.191331
v -0.283668 1.325222 1.191913
v -0.370089 1.216168 1.190366
v -0.206910 2.156550 1.204657
v 0.206910 2.156550 1.204657
v 0.206910 2.161647 0.916632
v -0.206910 2.161647 0.916632
v -0.331584 1.500173 1.194438
v -0.254154 1.542908 1.195034
v -0.256249 1.822875 1.198951
v -0.334318 1.865434 1.199548
v 0.201875 1.209860 1.189328
v 0.261924 1.187567 1.189328
v 0.200761 1.303300 1.191118
v 0.154734 1.320388 1.191118
v 0.334318 1.871334 0.911522
v 0.167159 1.846084 0.911522
v 0.271578 2.185071 0.916632
v 0.338389 2.191030 0.916355
v 0.378677 2.155787 0.915598
v 0.381648 2.088785 0.914564
v 0.328909 1.181122 1.189606
v 0.370089 1.216168 1.190366
v 0.283668 1.325222 1.191913
v 0.252104 1.298360 1.191331
v 0.201875 1.214958 0.818079
v 0.261740 1.192971 0.818079
v 0.331584 1.500173 1.194438
v 0.331584 1.506073 0.823189
v 0.334318 1.865434 1.199548
v -0.201875 1.209860 1.189328
v -0.154734 1.320388 1.191118
v -0.200761 1.303300 1.191118
v -0.261924 1.187567 1.189328
v -0.334318 1.871334 0.911522
v -0.381648 2.088785 0.914564
v -0.378677 2.155787 0.915598
v -0.338389 2.191030 0.916355
v -0.271578 2.185071 0.916632
v -0.167159 1.846084 0.911522
v -0.370065 1.222001 0.819117
v -0.328817 1.186774 0.818357
v -0.208026 2.062965 1.250742
v -0.208026 2.063724 1.202867
v -0.381648 2.082885 1.202590
v -0.292527 1.989548 1.201283
v -0.292527 1.988789 1.249157
v 0.378653 2.149952 1.203624
v 0.338301 2.185374 1.204380
v 0.259302 2.068104 1.202655
v 0.290232 2.040954 1.202075
v 0.381648 2.082885 1.202590
v 0.292527 1.989548 1.201283
v 0.256249 1.822875 1.198951
v 0.374430 1.283314 1.191404
v 0.374430 1.289214 0.820155
v 0.165792 1.530521 0.823189
v -0.374430 1.283314 1.191404
v -0.331584 1.506073 0.823189
v -0.374430 1.289214 0.820155
v -0.201875 1.214958 0.818079
v 0.370065 1.222001 0.819117
v 0.328817 1.186774 0.818357
v 0.254154 1.542908 1.195034
v -0.158593 2.046010 1.202867
v -0.158593 2.045252 1.250742
v 0.158593 2.045252 1.250742
v 0.158593 2.046010 1.202867
v -0.378653 2.149952 1.203624
v -0.338301 2.185374 1.204380
v -0.271402 2.179660 1.204657
v 0.271402 2.179660 1.204657
v -0.165792 1.530521 0.823189
v -0.261740 1.192971 0.818079
v -0.252104 1.297601 1.239205
v -0.283668 1.324463 1.239787
v 0.290232 2.040195 1.249949
v 0.292527 1.988789 1.249157
v 0.028677 1.874207 1.249986
v 0.078347 1.845751 1.249431
v 0.107024 1.796466 1.248360
v 0.256249 1.822116 1.246825
v 0.259302 2.067345 1.250529
v 0.208026 2.062965 1.250742
v -0.256249 1.822116 1.246825
v -0.107024 1.796466 1.248360
v -0.078347 1.845751 1.249431
v -0.028677 1.874207 1.249986
v -0.107024 1.739556 1.247129
v -0.107024 1.740258 1.191527
v -0.107024 1.797170 1.192658
v -0.200761 1.302541 1.238992
v 0.286995 1.376689 1.192709
v 0.254154 1.542149 1.242908
v 0.286995 1.375930 1.240583
v 0.208026 2.063724 1.202867
v -0.286995 1.375930 1.240583
v -0.286995 1.376689 1.192709
v 0.200761 1.302541 1.238992
v 0.154734 1.319629 1.238992
v -0.254154 1.542149 1.242908
v -0.154734 1.319629 1.238992
v -0.070819 1.700353 1.246354
v -0.070819 1.701056 1.190747
v 0.252104 1.297601 1.239205
v -0.037720 1.678905 1.246121
v -0.069456 1.491710 1.245572
v -0.069456 1.492412 1.189981
v -0.037720 1.679608 1.190514
v 0.283668 1.324463 1.239787
v -0.078347 1.846456 1.193639
v -0.028677 1.874912 1.194205
v -0.641959 2.015246 -0.930004
v -0.641959 1.986944 -0.952698
v -0.641959 1.942299 -1.164655
v -0.641959 1.962752 -1.179230
v 0.107024 1.739556 1.247129
v 0.070819 1.700353 1.246354
v 0.037720 1.678905 1.246121
v 0.069456 1.491710 1.245572
v 0.107024 1.797170 1.192658
v 0.107024 1.740258 1.191527
v 0.037720 1.679608 1.190514
v 0.069456 1.492412 1.189981
v -1.407077 1.962752 -1.179230
v -1.407077 2.015246 -0.930004
v 0.070819 1.701056 1.190747
v 0.028677 1.874912 1.194205
v 0.078347 1.846456 1.193639
v -0.641959 1.702572 -1.178739
v -1.407077 1.702572 -1.178739
v -1.407077 1.899794 -1.220281
v -0.641959 1.899794 -1.220281
v -1.407077 1.661521 -1.115781
v -1.407077 1.714016 -0.866555
v 0.641959 1.702572 -1.178739
v 0.641959 1.899794 -1.220281
v 1.407077 1.899794 -1.220281
v 1.407077 1.702572 -1.178739
v 1.407077 1.962752 -1.179230
v 0.641959 1.962752 -1.179230
v 0.641959 2.015246 -0.930004
v 1.407077 2.015246 -0.930004
v 1.407077 1.714016 -0.866555
v 0.641959 1.714016 -0.866555
v 0.641959 1.942299 -1.164655
v 0.641959 1.986944 -0.952698
v 1.407077 1.661521 -1.115781
v 0.641959 1.661521 -1.115781
v 0.641959 1.730760 -0.898738
v 0.306771 1.986944 -0.952698
v 0.306771 1.730760 -0.898738
v 0.641959 1.686115 -1.110694
v 0.641959 1.888756 -1.199567
v 0.641959 1.721027 -1.164237
v 0.306771 1.942299 -1.164655
v 0.306771 1.888756 -1.199567
v 0.306771 1.721027 -1.164237
v 0.306771 1.686115 -1.110694
v -0.641959 1.714016 -0.866555
v -0.641959 1.661521 -1.115781
v -0.641959 1.730760 -0.898738
v -0.306771 1.730760 -0.898738
v -0.306771 1.986944 -0.952698
v -0.641959 1.686115 -1.110694
v -0.641959 1.888756 -1.199567
v -0.641959 1.721027 -1.164237
v -0.306771 1.686115 -1.110694
v -0.306771 1.721027 -1.164237
v -0.306771 1.888756 -1.199567
v -0.306771 1.942299 -1.164655
s 1
usemtl Chest
f 4 1 2
f 2 3 4
f 8 5 6
f 6 7 8
f 12 9 10
f 10 11 12
f 16 13 14
f 14 15 16
f 13 17 18
f 18 14 13
f 22 19 20
f 20 21 22
f 26 23 24
f 24 25 26
f 24 23 27
f 27 28 24
f 32 29 30
f 30 31 32
f 14 18 33
f 33 34 14
f 38 35 36
f 36 37 38
f 42 39 40
f 40 41 42
f 46 43 44
f 44 45 46
f 49 47 30
f 30 48 49
f 53 50 51
f 51 52 53
f 57 54 55
f 55 56 57
f 4 58 59
f 59 56 4
f 63 60 61
f 61 62 63
f 56 59 64
f 64 57 56
f 66 65 45
f 45 44 66
f 68 67 53
f 53 52 68
f 72 69 70
f 70 71 72
f 34 73 7
f 7 6 34
f 77 74 75
f 75 76 77
f 79 78 57
f 57 64 79
f 6 5 80
f 80 15 6
f 82 68 52
f 52 81 82
f 86 83 84
f 84 85 86
f 90 87 88
f 88 89 90
f 93 91 92
f 92 89 93
f 97 94 95
f 95 96 97
f 99 97 96
f 96 98 99
f 103 100 101
f 101 102 103
f 51 104 81
f 81 52 51
f 99 55 54
f 54 97 99
f 106 105 67
f 67 68 106
f 110 107 108
f 108 109 110
f 111 93 89
f 89 88 111
f 100 1 55
f 55 99 100
f 95 94 50
f 50 53 95
f 114 112 113
f 113 72 114
f 117 115 116
f 116 113 117
f 95 118 119
f 119 96 95
f 96 119 120
f 120 98 96
f 15 80 121
f 121 16 15
f 101 122 123
f 123 102 101
f 127 124 125
f 125 126 127
f 37 36 114
f 114 128 37
f 130 129 9
f 9 12 130
f 118 19 22
f 22 119 118
f 119 22 21
f 21 120 119
f 122 26 25
f 25 123 122
f 27 106 68
f 68 82 27
f 8 131 33
f 33 5 8
f 135 132 133
f 133 134 135
f 120 21 26
f 26 122 120
f 138 136 137
f 137 104 138
f 98 120 122
f 122 101 98
f 103 2 1
f 1 100 103
f 28 27 82
f 82 139 28
f 101 100 99
f 99 98 101
f 105 19 118
f 118 67 105
f 139 82 81
f 81 140 139
f 9 35 38
f 38 10 9
f 3 141 58
f 58 4 3
f 145 142 143
f 143 144 145
f 18 17 121
f 121 80 18
f 81 104 137
f 137 140 81
f 21 20 23
f 23 26 21
f 56 55 1
f 1 4 56
f 149 146 147
f 147 148 149
f 23 20 106
f 106 27 23
f 146 150 151
f 151 147 146
f 155 152 153
f 153 154 155
f 158 151 156
f 156 157 158
f 158 159 152
f 152 155 158
f 162 160 157
f 157 161 162
f 147 151 158
f 158 155 147
f 146 149 153
f 153 152 146
f 148 147 155
f 155 154 148
f 162 163 164
f 164 160 162
f 151 150 164
f 164 156 151
f 138 90 89
f 89 92 138
f 149 148 154
f 154 153 149
f 168 165 166
f 166 167 168
f 161 169 163
f 163 162 161
f 165 170 171
f 171 166 165
f 175 172 173
f 173 174 175
f 179 176 177
f 177 178 179
f 181 180 172
f 172 175 181
f 178 180 181
f 181 182 178
f 166 171 181
f 181 175 166
f 165 168 173
f 173 172 165
f 167 166 175
f 175 174 167
f 182 183 184
f 184 185 182
f 179 178 182
f 182 185 179
f 183 177 176
f 176 184 183
f 168 167 174
f 174 173 168
f 189 186 187
f 187 188 189
f 193 190 191
f 191 192 193
f 186 194 195
f 195 187 186
f 199 196 197
f 197 198 199
f 201 193 192
f 192 200 201
f 203 202 196
f 196 199 203
f 203 195 193
f 193 201 203
f 187 195 203
f 203 199 187
f 186 189 197
f 197 196 186
f 188 187 199
f 199 198 188
f 200 192 191
f 191 204 200
f 205 202 203
f 203 201 205
f 195 194 190
f 190 193 195
f 189 188 198
f 198 197 189
f 87 90 51
f 51 50 87
f 207 206 110
f 110 31 207
f 211 208 209
f 209 210 211
f 208 212 213
f 213 209 208
f 36 62 112
f 112 114 36
f 215 211 210
f 210 214 215
f 219 216 217
f 217 218 219
f 212 220 221
f 221 213 212
f 214 210 209
f 209 213 214
f 224 126 222
f 222 223 224
f 208 211 215
f 215 212 208
f 225 214 213
f 213 221 225
f 145 226 227
f 227 228 145
f 229 215 214
f 214 225 229
f 212 215 229
f 229 220 212
f 231 58 141
f 141 230 231
f 234 60 232
f 232 233 234
f 236 234 235
f 235 117 236
f 41 40 237
f 237 238 41
f 218 239 144
f 144 219 218
f 240 59 58
f 58 231 240
f 244 241 242
f 242 243 244
f 245 64 59
f 59 240 245
f 228 227 246
f 246 247 228
f 249 43 134
f 134 248 249
f 29 32 240
f 240 231 29
f 65 250 46
f 46 45 65
f 252 251 249
f 249 248 252
f 44 43 249
f 249 253 44
f 255 8 7
f 7 254 255
f 10 38 250
f 10 250 65
f 10 65 66
f 66 256 257
f 66 257 243
f 66 243 242
f 10 66 242
f 128 114 72
f 72 71 128
f 90 138 104
f 104 51 90
f 261 258 259
f 259 260 261
f 265 262 263
f 263 264 265
f 93 111 265
f 265 264 93
f 269 266 267
f 267 268 269
f 142 270 271
f 271 143 142
f 91 93 264
f 264 272 91
f 33 131 73
f 73 34 33
f 116 69 72
f 72 113 116
f 264 263 273
f 273 272 264
f 75 274 275
f 275 76 75
f 275 233 130
f 130 76 275
f 239 271 270
f 270 226 239
f 235 276 115
f 115 117 235
f 249 251 277
f 277 253 249
f 266 278 279
f 279 280 266
f 46 250 132
f 132 135 46
f 282 279 278
f 278 281 282
f 269 283 278
f 278 266 269
f 287 284 285
f 285 286 287
f 291 288 289
f 289 290 291
f 292 29 231
f 231 230 292
f 47 207 31
f 31 30 47
f 294 293 224
f 224 223 294
f 295 242 241
f 241 74 295
f 293 125 124
f 124 258 293
f 268 296 283
f 283 269 268
f 261 127 126
f 126 224 261
f 287 286 247
f 247 246 287
f 221 220 297
f 297 298 221
f 272 273 257
f 257 256 272
f 302 299 300
f 300 301 302
f 42 41 238
f 238 298 42
f 274 288 303
f 303 276 274
f 37 49 48
f 292 230 133
f 292 133 132
f 132 250 38
f 132 38 37
f 132 37 48
f 48 292 132
f 206 207 116
f 116 115 206
f 255 304 131
f 131 8 255
f 131 304 305
f 305 73 131
f 77 12 11
f 11 306 77
f 266 280 307
f 307 267 266
f 124 83 259
f 259 258 124
f 281 278 283
f 283 296 281
f 35 63 62
f 62 36 35
f 108 107 291
f 291 262 108
f 299 282 307
f 307 300 299
f 84 127 261
f 261 260 84
f 267 281 296
f 296 268 267
f 143 271 217
f 217 216 143
f 311 308 309
f 309 310 311
f 308 311 299
f 299 302 308
f 243 257 273
f 273 244 243
f 303 206 115
f 115 276 303
f 295 74 77
f 77 306 295
f 307 280 310
f 310 300 307
f 307 282 281
f 281 267 307
f 129 63 35
f 35 9 129
f 298 297 39
f 39 42 298
f 83 124 127
f 127 84 83
f 300 310 309
f 309 301 300
f 262 265 312
f 312 108 262
f 288 291 107
f 107 303 288
f 290 263 262
f 262 291 290
f 86 85 313
f 313 314 86
f 311 279 282
f 282 299 311
f 144 143 216
f 216 219 144
f 298 238 225
f 225 221 298
f 73 305 254
f 254 7 73
f 107 110 206
f 206 303 107
f 304 255 254
f 254 305 304
f 133 252 248
f 248 134 133
f 29 292 48
f 48 30 29
f 33 18 80
f 80 5 33
f 315 91 272
f 272 256 315
f 274 276 235
f 235 275 274
f 47 49 70
f 70 69 47
f 229 237 297
f 297 220 229
f 260 259 314
f 314 313 260
f 279 311 310
f 310 280 279
f 207 47 69
f 69 116 207
f 238 237 229
f 229 225 238
f 285 142 145
f 145 228 285
f 76 130 12
f 12 77 76
f 32 109 245
f 245 240 32
f 290 289 241
f 241 244 290
f 284 270 142
f 142 285 284
f 85 84 260
f 260 313 85
f 126 125 316
f 316 222 126
f 109 32 31
f 31 110 109
f 223 222 316
f 316 294 223
f 74 241 289
f 289 75 74
f 244 273 263
f 263 290 244
f 15 14 34
f 34 6 15
f 204 191 190
f 190 205 204
f 194 186 196
f 196 202 194
f 185 184 176
f 176 179 185
f 204 205 201
f 201 200 204
f 181 171 183
f 183 182 181
f 170 165 172
f 172 180 170
f 157 156 169
f 169 161 157
f 171 170 177
f 177 183 171
f 160 159 158
f 158 157 160
f 150 146 152
f 152 159 150
f 91 315 317
f 317 92 91
f 156 164 163
f 163 169 156
f 235 234 233
f 233 275 235
f 75 289 288
f 288 274 75
f 239 226 145
f 145 144 239
f 112 236 117
f 117 113 112
f 88 78 79
f 79 111 88
f 97 54 318
f 318 94 97
f 64 245 312
f 312 79 64
f 61 60 234
f 234 236 61
f 54 57 78
f 78 318 54
f 83 86 314
f 314 259 83
f 319 320 321
f 319 321 322
f 319 322 323
f 20 19 105
f 105 106 20
f 284 287 246
f 246 227 284
f 62 61 236
f 236 112 62
f 328 324 325
f 328 325 326
f 326 327 328
f 67 118 95
f 95 53 67
f 16 121 17
f 17 13 16
f 134 43 46
f 46 135 134
f 136 138 92
f 92 317 136
f 218 217 271
f 271 239 218
f 233 232 129
f 129 130 233
f 253 277 66
f 66 44 253
f 237 40 39
f 39 297 237
f 312 245 109
f 109 108 312
f 293 258 261
f 261 224 293
f 205 190 194
f 194 202 205
f 178 177 170
f 170 180 178
f 160 164 150
f 150 159 160
f 294 316 125
f 125 293 294
f 232 60 63
f 63 129 232
f 318 87 50
f 50 94 318
f 312 265 111
f 111 79 312
f 78 88 87
f 87 318 78
f 270 284 227
f 227 226 270
f 308 302 301
f 301 309 308
f 28 136 317
f 315 256 66
f 315 66 277
f 277 251 24
f 277 24 28
f 277 28 317
f 317 315 277
f 295 306 326
f 326 325 295
f 286 285 228
f 228 247 286
f 3 2 25
f 25 24 251
f 25 251 252
f 25 252 133
f 133 230 141
f 133 141 3
f 25 133 3
f 330 28 139
f 139 329 330
f 329 139 140
f 140 331 329
f 332 333 334
f 332 334 335
f 332 335 336
f 338 337 330
f 338 330 329
f 329 331 338
f 306 11 327
f 327 326 306
f 338 137 136
f 136 337 338
f 128 71 321
f 321 320 128
f 70 49 323
f 323 322 70
f 333 2 103
f 103 334 333
f 331 140 137
f 137 338 331
f 49 37 319
f 319 323 49
f 11 10 328
f 328 327 11
f 334 103 102
f 102 335 334
f 71 70 322
f 322 321 71
f 336 123 25
f 25 332 336
f 37 128 320
f 320 319 37
f 242 295 325
f 325 324 242
f 10 242 324
f 324 328 10
f 335 102 123
f 123 336 335
f 332 25 2
f 2 333 332
f 337 136 28
f 28 330 337
f 342 339 340
f 340 341 342
f 346 343 344
f 344 345 346
f 350 347 348
f 348 349 350
f 354 351 352
f 352 353 354
f 358 355 356
f 356 357 358
f 364 359 360
f 364 360 349
f 364 349 361
f 364 361 362
f 362 363 364
f 368 365 366
f 366 367 368
f 356 355 369
f 369 370 356
f 373 371 372
f 372 359 373
f 377 374 375
f 375 376 377
f 383 378 379
f 383 379 380
f 383 380 381
f 383 381 382
f 382 350 383
f 385 343 346
f 346 384 385
f 387 342 341
f 341 386 387
f 378 354 388
f 388 379 378
f 339 389 390
f 390 340 339
f 394 391 392
f 392 393 394
f 397 373 395
f 395 396 397
f 371 398 399
f 399 372 371
f 359 372 400
f 400 360 359
f 403 401 351
f 351 402 403
f 355 374 404
f 404 369 355
f 395 373 359
f 359 364 395
f 372 399 405
f 372 405 406
f 372 406 370
f 372 370 369
f 369 400 372
f 407 371 373
f 373 397 407
f 411 408 409
f 409 410 411
f 413 412 339
f 339 342 413
f 388 354 353
f 353 389 388
f 412 380 379
f 379 388 412
f 414 413 342
f 342 387 414
f 362 361 415
f 415 392 362
f 363 362 392
f 392 391 363
f 364 363 391
f 391 395 364
f 365 356 370
f 370 406 365
f 366 365 406
f 406 405 366
f 398 366 405
f 405 399 398
f 416 402 378
f 378 383 416
f 384 403 402
f 384 402 416
f 384 416 404
f 384 404 417
f 417 385 384
f 417 377 343
f 343 385 417
f 413 381 380
f 380 412 413
f 414 382 381
f 381 413 414
f 348 415 361
f 361 349 348
f 345 344 418
f 418 419 345
f 421 396 394
f 394 420 421
f 423 424 425
f 423 425 421
f 423 421 420
f 423 420 426
f 423 426 427
f 423 427 410
f 423 410 409
f 423 409 386
f 423 386 341
f 341 340 390
f 341 390 428
f 341 428 429
f 341 429 430
f 341 430 431
f 341 431 422
f 422 423 341
f 389 353 428
f 428 390 389
f 420 394 393
f 393 426 420
f 434 429 432
f 432 433 434
f 344 376 435
f 435 418 344
f 438 436 407
f 407 437 438
f 426 393 439
f 439 427 426
f 441 345 419
f 419 440 441
f 382 414 347
f 347 350 382
f 443 358 357
f 357 442 443
f 343 377 376
f 376 344 343
f 351 401 441
f 441 352 351
f 412 388 389
f 389 339 412
f 436 398 371
f 371 407 436
f 396 395 391
f 391 394 396
f 401 346 345
f 345 441 401
f 393 392 415
f 415 439 393
f 367 366 398
f 398 436 367
f 357 356 365
f 365 368 357
f 352 441 440
f 440 444 352
f 439 415 348
f 348 411 439
f 376 375 445
f 445 435 376
f 437 407 397
f 397 425 437
f 433 432 446
f 446 447 433
f 442 357 368
f 368 448 442
f 452 449 450
f 450 451 452
f 358 443 445
f 445 375 358
f 448 368 367
f 367 453 448
f 455 431 430
f 430 454 455
f 427 439 411
f 411 410 427
f 347 414 387
f 387 408 347
f 453 367 436
f 436 438 453
f 425 397 396
f 396 421 425
f 408 387 386
f 386 409 408
f 404 374 377
f 377 417 404
f 459 456 457
f 457 458 459
f 443 442 448
f 443 448 453
f 443 453 438
f 443 438 437
f 443 437 425
f 443 425 424
f 443 424 460
f 443 460 461
f 443 461 462
f 443 462 463
f 443 463 450
f 450 449 446
f 450 446 432
f 432 429 428
f 432 428 444
f 432 444 440
f 432 440 419
f 432 419 418
f 432 418 435
f 432 435 445
f 445 443 450
f 450 432 445
f 454 430 429
f 429 434 454
f 460 424 464
f 464 465 460
f 463 462 466
f 466 467 463
f 459 468 469
f 469 456 459
f 461 460 465
f 465 470 461
f 423 422 471
f 471 472 423
f 476 473 474
f 474 475 476
f 451 450 463
f 463 467 451
f 424 423 472
f 472 464 424
f 462 461 470
f 470 466 462
f 468 459 476
f 476 475 468
f 474 477 478
f 474 478 469
f 474 469 468
f 468 475 474
f 482 479 480
f 480 481 482
f 486 483 484
f 484 485 486
f 488 487 486
f 486 485 488
f 490 485 484
f 484 489 490
f 487 491 482
f 487 482 481
f 487 481 483
f 483 486 487
f 482 491 492
f 492 479 482
f 480 484 483
f 483 481 480
f 488 492 491
f 491 487 488
f 495 493 490
f 490 494 495
f 496 492 488
f 488 493 496
f 489 484 480
f 480 497 489
f 498 479 492
f 492 496 498
f 497 480 479
f 479 498 497
f 493 488 485
f 485 490 493
f 502 495 494
f 502 494 499
f 502 499 500
f 500 501 502
f 500 497 498
f 498 501 500
f 502 496 493
f 493 495 502
f 501 498 496
f 496 502 501
f 494 490 489
f 489 499 494
f 499 489 497
f 497 500 499
f 451 467 466
f 466 470 465
f 466 465 464
f 466 464 472
f 466 472 471
f 466 471 455
f 466 455 454
f 466 454 434
f 466 434 433
f 466 433 447
f 466 447 452
f 466 452 451
f 469 478 503
f 503 456 469
f 504 477 474
f 474 473 504
f 447 446 449
f 449 452 447
f 353 352 444
f 444 428 353
f 400 416 383
f 383 360 400
f 369 404 416
f 416 400 369
f 349 360 383
f 383 350 349
f 402 351 354
f 354 378 402
f 374 355 358
f 358 375 374
f 384 346 401
f 401 403 384
f 348 347 408
f 408 411 348
f 477 504 503
f 503 478 477
f 457 505 506
f 506 507 457
f 503 504 508
f 508 505 503
f 476 459 458
f 458 509 476
f 504 473 510
f 510 508 504
f 473 476 509
f 509 510 473
f 456 503 505
f 505 457 456
f 507 506 511
f 507 511 512
f 507 512 513
f 513 514 507
f 510 509 513
f 513 512 510
f 505 508 511
f 511 506 505
f 508 510 512
f 512 511 508
f 458 457 507
f 507 514 458
f 509 458 514
f 514 513 509
f 471 422 431
f 431 455 471
o Chest_lid
v 2.136437 2.254406 1.280720
v 2.201724 2.560923 1.273134
v 1.823871 2.533115 1.259468
v 1.766067 2.237209 1.270851
v -1.766067 2.237208 -1.270852
v -1.710309 1.754957 -1.235199
v -2.068123 1.738252 -1.236014
v -2.136437 2.254406 -1.280721
v 1.766067 2.237208 -1.270852
v 2.136437 2.254406 -1.280721
v 2.068123 1.738252 -1.236014
v 1.710309 1.754957 -1.235199
v -1.878469 2.930956 -0.567053
v -1.867304 3.018386 -0.576268
v -1.867304 3.018386 0.576267
v -1.878469 2.930957 0.567052
v -0.366582 2.339011 1.133176
v -1.039584 2.388836 1.137085
v -1.010249 2.126472 1.140763
v -0.336017 2.077643 1.134002
v 1.671184 1.766702 1.110756
v 1.725548 2.239242 1.142846
v 1.010249 2.126472 1.140763
v 0.997510 1.763052 1.122052
v 2.095847 2.273824 1.090676
v 2.167012 2.526445 1.080599
v 2.259008 2.508822 1.098216
v 2.183988 2.257522 1.094708
v 2.023246 1.761052 -1.051415
v 2.095847 2.273824 -1.090676
v 2.167012 2.526445 -1.080600
v 2.227845 2.736032 -0.977920
v 2.268767 2.876051 -0.797437
v 2.284443 2.926576 -0.562603
v 2.284443 2.926576 0.562602
v 2.268767 2.876051 0.797436
v 2.227845 2.736032 0.977919
v 2.023246 1.761053 1.051415
v -0.415567 2.777306 -0.569662
v -1.084523 2.826938 -0.569601
v -1.084523 2.826938 0.569600
v -0.415567 2.777307 0.569661
v -1.865851 2.877849 0.815210
v -1.079179 2.773420 0.824896
v -2.284443 2.926576 0.562602
v -2.379881 2.946783 0.567286
v -2.379881 2.946783 -0.567288
v -2.284443 2.926576 -0.562603
v 2.322890 2.734223 -1.002451
v 2.365866 2.891086 -0.815031
v 1.904039 3.064610 0.580929
v 2.309433 3.122926 0.585044
v 2.309433 3.122926 -0.585045
v 1.904039 3.064610 -0.580930
v 1.878469 2.930957 0.567052
v 1.084523 2.826938 0.569600
v 1.079179 2.773420 0.824896
v 1.865851 2.877849 0.815210
v 2.322890 2.734223 1.002450
v -2.322890 2.734223 -1.002451
v -2.305232 2.829360 -1.106378
v -2.247294 2.551571 -1.234852
v -2.259008 2.508821 -1.098216
v -2.183988 2.257522 -1.094709
v -2.179632 2.256608 -1.241213
v -2.109933 1.739452 -1.195662
v -2.111099 1.750698 -1.050622
v -1.895320 3.001739 0.873748
v -1.904039 3.064610 0.580929
v -2.309433 3.122926 0.585044
v -2.295671 3.053404 0.884897
v 0.000000 2.777307 0.569661
v 0.000000 2.723687 0.824676
v 0.409465 2.723687 0.824676
v 0.415567 2.777307 0.569661
v -1.783245 2.505291 1.128440
v -1.725548 2.239242 1.142846
v 0.000000 2.339011 1.133176
v 0.000000 2.077643 1.134002
v 0.336017 2.077643 1.134002
v 0.366582 2.339011 1.133176
v -0.409465 2.723687 0.824676
v -1.063518 2.619289 1.026429
v -0.392277 2.569376 1.024901
v 1.895320 3.001739 0.873748
v 2.295671 3.053404 0.884897
v -1.079179 2.773419 -0.824896
v -1.063518 2.619288 -1.026430
v -1.832808 2.729745 -1.013048
v -1.865851 2.877848 -0.815211
v -1.832808 2.729746 1.013047
v -1.827635 2.783734 1.084807
v -1.782306 2.521916 1.215500
v -2.136437 2.254406 1.280720
v -1.766067 2.237209 1.270851
v -1.823871 2.533115 1.259468
v -2.201724 2.560923 1.273134
v -0.997510 1.763052 -1.122052
v -1.671184 1.766701 -1.110757
v -1.725548 2.239242 -1.142847
v -1.010249 2.126472 -1.140763
v 1.063518 2.619289 1.026429
v 1.832808 2.729746 1.013047
v 1.039584 2.388836 1.137085
v 1.783245 2.505291 1.128440
v -2.023246 1.761052 -1.051415
v -2.023246 1.761053 1.051415
v -2.095847 2.273824 1.090676
v -2.167012 2.526445 1.080599
v -2.227845 2.736032 0.977919
v -2.268767 2.876051 0.797436
v -2.268767 2.876051 -0.797437
v -2.227845 2.736032 -0.977920
v -2.167012 2.526445 -1.080600
v -2.095847 2.273824 -1.090676
v 0.409465 2.723687 -0.824676
v 0.415567 2.777306 -0.569662
v 1.084523 2.826938 -0.569601
v 1.079179 2.773419 -0.824896
v 0.392277 2.569375 -1.024902
v 1.063518 2.619288 -1.026430
v 0.366582 2.339011 -1.133176
v 1.039584 2.388835 -1.137086
v 0.336016 2.077643 -1.134003
v 1.010249 2.126472 -1.140763
v -0.328850 1.763554 -1.122077
v -0.336016 2.077643 -1.134003
v -1.857298 2.958981 -0.854498
v -2.365866 2.891086 -0.815031
v -0.392277 2.569375 -1.024902
v -0.409465 2.723687 -0.824676
v -1.039584 2.388835 -1.137086
v -1.783246 2.505291 -1.128441
v 0.392277 2.569376 1.024901
v -2.322890 2.734223 1.002450
v -2.365866 2.891087 0.815030
v 0.328850 1.763554 -1.122077
v 0.997510 1.763052 -1.122052
v -1.827635 2.783734 -1.084808
v 0.328850 1.763555 1.122076
v 2.379881 2.946783 -0.567288
v 1.895320 3.001739 -0.873748
v 2.295671 3.053404 -0.884897
v 2.257723 2.853739 -1.136057
v 1.867210 2.813524 -1.120344
v 1.783246 2.505291 -1.128441
v 1.725548 2.239242 -1.142847
v 1.878469 2.930956 -0.567053
v 1.865851 2.877848 -0.815211
v 1.832808 2.729745 -1.013048
v 2.365866 2.891087 0.815030
v 1.671184 1.766701 -1.110757
v 1.823871 2.533115 -1.259469
v 2.201724 2.560923 -1.273135
v 1.867210 2.813525 1.120343
v 2.257723 2.853740 1.136056
v 1.724650 2.236603 -1.227006
v 1.669662 1.760248 -1.192564
v 1.827635 2.783734 -1.084808
v 1.782306 2.521916 -1.215501
v 1.867304 3.018386 -0.576268
v 1.857298 2.958981 -0.854498
v 1.867304 3.018386 0.576267
v 1.827635 2.783734 1.084807
v 1.857298 2.958982 0.854496
v 2.111099 1.750699 1.050621
v 2.179632 2.256609 1.241212
v 2.109933 1.739452 1.195661
v -1.857298 2.958982 0.854496
v -1.867210 2.813525 1.120343
v 1.782306 2.521916 1.215500
v 2.379881 2.946783 0.567286
v -2.358072 3.086694 -0.581252
v -2.309433 3.122926 -0.585045
v -2.295671 3.053404 -0.884897
v -2.344420 3.019302 -0.869326
v 2.358072 3.086694 -0.581252
v 2.358072 3.086694 0.581251
v 2.305232 2.829360 -1.106378
v 2.344420 3.019302 -0.869326
v 2.305232 2.829361 1.106377
v 2.247294 2.551571 1.234852
v 1.710309 1.754958 1.235198
v 2.068123 1.738253 1.236013
v 2.259008 2.508821 -1.098216
v 2.247294 2.551571 -1.234852
v 2.344420 3.019302 0.869326
v 2.183988 2.257522 -1.094709
v 2.111099 1.750698 -1.050622
v 2.109933 1.739452 -1.195662
v 2.179632 2.256608 -1.241213
v 0.000000 2.569376 1.024901
v -1.904039 3.064610 -0.580930
v -0.366582 2.339011 -1.133176
v -2.183988 2.257522 1.094708
v -2.259008 2.508822 1.098216
v -1.671184 1.766702 1.110756
v -0.997510 1.763052 1.122052
v 0.000000 2.032963 1.132306
v 0.223556 2.032963 1.132306
v 0.290956 1.763555 1.122076
v -0.328850 1.763555 1.122076
v -1.823871 2.533115 -1.259469
v -2.201724 2.560923 -1.273135
v -1.895320 3.001739 -0.873748
v -1.669662 1.760248 -1.192564
v -1.724650 2.236603 -1.227006
v -2.257723 2.853740 1.136056
v -2.111099 1.750699 1.050621
v -2.109933 1.739452 1.195661
v -2.179632 2.256609 1.241212
v 0.000000 2.274070 -0.840359
v 0.000000 2.386526 -0.568866
v -1.875491 2.386526 -0.568866
v -1.875491 2.274070 -0.840359
v -2.247294 2.551571 1.234852
v -2.305232 2.829361 1.106377
v -1.724650 2.236604 1.227005
v 0.000000 2.386526 0.568865
v -1.875491 2.386526 0.568865
v -1.710309 1.754958 1.235198
v -2.068123 1.738253 1.236013
v -1.782306 2.521916 -1.215501
v -1.669662 1.760248 1.192564
v -1.867210 2.813524 -1.120344
v -2.257723 2.853739 -1.136057
v -2.358072 3.086694 0.581251
v -0.290956 1.763555 1.122076
v -0.223556 2.032963 1.132306
v -1.875491 1.761053 0.952813
v -1.875491 1.761052 -0.952815
v -1.875491 2.002577 -0.952815
v -1.875491 2.274070 0.840358
v -1.875491 2.002578 0.952813
v 0.000000 2.002577 -0.952815
v -2.344420 3.019302 0.869326
v 1.724650 2.236604 1.227005
v 1.669662 1.760248 1.192564
v 1.875491 2.386526 -0.568866
v 1.875491 2.386526 0.568865
v 1.875491 1.761053 0.952813
v 1.875491 2.002578 0.952813
v 1.875491 2.274070 0.840358
v 1.875491 2.274070 -0.840359
v 1.875491 2.002577 -0.952815
v 1.875491 1.761052 -0.952815
v 0.293163 1.761145 0.952813
v 0.000000 2.040372 0.937159
v 0.223556 2.040372 0.937159
v 0.232849 2.002578 0.952813
v 0.000000 2.274070 0.840358
v 0.000000 1.761144 -0.952815
v 0.000000 2.569375 -1.024902
v 0.000000 2.723687 -0.824676
v 0.000000 2.777306 -0.569662
v 0.000000 2.339011 -1.133176
v 0.000000 2.077643 -1.134003
v 0.000000 1.763554 -1.122077
v -0.293163 1.761145 0.952813
v -0.223556 2.040372 0.937159
v -0.232849 2.002578 0.952813
s 1
usemtl Chest
f 518 515 516
f 516 517 518
f 522 519 520
f 520 521 522
f 526 523 524
f 524 525 526
f 530 527 528
f 528 529 530
f 534 531 532
f 532 533 534
f 538 535 536
f 536 537 538
f 542 539 540
f 540 541 542
f 552 543 544
f 552 544 545
f 552 545 546
f 552 546 547
f 552 547 548
f 552 548 549
f 552 549 550
f 552 550 551
f 552 551 540
f 540 539 552
f 556 553 554
f 554 555 556
f 555 530 557
f 557 558 555
f 562 559 560
f 560 561 562
f 564 547 546
f 546 563 564
f 568 565 566
f 566 567 568
f 572 569 570
f 570 571 572
f 541 540 551
f 551 573 541
f 577 574 575
f 575 576 577
f 581 578 579
f 579 580 581
f 585 582 583
f 583 584 585
f 589 586 587
f 587 588 589
f 532 590 591
f 591 533 532
f 595 592 593
f 593 594 595
f 598 596 558
f 558 597 598
f 565 599 600
f 600 566 565
f 604 601 602
f 602 603 604
f 590 605 606
f 606 607 590
f 611 608 609
f 609 610 611
f 615 612 613
f 613 614 615
f 617 572 571
f 571 616 617
f 619 617 616
f 616 618 619
f 536 619 618
f 618 537 536
f 629 620 621
f 629 621 622
f 629 622 623
f 629 623 624
f 629 624 625
f 629 625 559
f 629 559 562
f 629 562 626
f 629 626 627
f 627 628 629
f 633 630 631
f 631 632 633
f 635 634 630
f 630 633 635
f 637 636 634
f 634 635 637
f 639 638 636
f 636 637 639
f 641 640 612
f 612 615 641
f 527 604 642
f 642 528 527
f 627 626 643
f 643 574 627
f 645 644 602
f 602 601 645
f 558 557 605
f 605 597 558
f 603 602 646
f 646 647 603
f 570 589 588
f 588 571 570
f 571 588 648
f 648 616 571
f 616 648 595
f 595 618 616
f 618 595 594
f 594 537 618
f 527 554 601
f 601 604 527
f 625 624 649
f 649 650 625
f 632 631 589
f 589 570 632
f 652 651 638
f 638 639 652
f 604 603 653
f 653 642 604
f 537 594 654
f 654 538 537
f 655 548 547
f 547 564 655
f 659 656 657
f 657 658 659
f 639 637 660
f 660 661 639
f 633 632 662
f 662 663 633
f 635 633 663
f 663 664 635
f 573 551 550
f 550 665 573
f 662 632 570
f 570 569 662
f 666 652 639
f 639 661 666
f 656 568 567
f 567 657 656
f 523 667 668
f 668 524 523
f 637 635 664
f 664 660 637
f 599 669 670
f 670 600 599
f 672 666 661
f 661 671 672
f 674 660 664
f 664 673 674
f 676 663 662
f 662 675 676
f 673 664 663
f 663 676 673
f 675 662 569
f 569 677 675
f 679 572 617
f 617 678 679
f 682 680 542
f 542 681 682
f 606 683 582
f 582 684 606
f 678 617 619
f 619 685 678
f 665 550 549
f 549 686 665
f 690 687 688
f 688 689 690
f 692 686 655
f 655 691 692
f 667 659 658
f 658 668 667
f 669 517 516
f 516 670 669
f 694 564 563
f 563 693 694
f 696 541 573
f 573 695 696
f 518 697 698
f 698 515 518
f 693 563 699
f 699 700 693
f 695 573 665
f 665 701 695
f 701 665 686
f 686 692 701
f 705 702 703
f 703 704 705
f 700 699 702
f 702 705 700
f 691 655 564
f 564 694 691
f 681 542 541
f 541 696 681
f 563 546 545
f 545 699 563
f 699 545 544
f 544 702 699
f 702 544 543
f 543 703 702
f 686 549 548
f 548 655 686
f 680 552 539
f 539 542 680
f 588 587 706
f 706 648 588
f 584 583 707
f 707 688 584
f 708 641 615
f 615 646 708
f 623 622 709
f 709 710 623
f 587 586 556
f 556 596 587
f 591 711 712
f 712 533 591
f 605 557 683
f 683 606 605
f 594 593 713
f 594 713 714
f 594 714 715
f 715 654 594
f 593 592 531
f 531 534 593
f 531 598 597
f 597 532 531
f 624 623 710
f 710 649 624
f 626 562 561
f 561 643 626
f 716 534 533
f 533 712 716
f 555 554 527
f 527 530 555
f 718 717 519
f 519 522 718
f 688 707 719
f 719 689 688
f 614 613 720
f 720 721 614
f 722 684 582
f 582 585 722
f 709 723 724
f 724 725 709
f 729 726 727
f 727 728 729
f 649 710 730
f 730 731 649
f 611 610 684
f 684 722 611
f 732 607 610
f 610 609 732
f 728 727 733
f 733 734 728
f 736 735 609
f 609 608 736
f 629 628 577
f 577 578 629
f 647 614 721
f 721 737 647
f 711 591 732
f 732 738 711
f 671 661 660
f 660 674 671
f 689 719 739
f 739 740 689
f 559 625 650
f 650 560 559
f 740 739 717
f 717 718 740
f 603 647 737
f 737 653 603
f 561 560 741
f 741 687 561
f 592 706 598
f 598 531 592
f 607 606 684
f 684 610 607
f 620 629 578
f 578 581 620
f 706 587 596
f 596 598 706
f 591 590 607
f 607 732 591
f 713 593 534
f 534 716 742
f 534 742 743
f 534 743 713
f 748 744 745
f 748 745 746
f 748 746 729
f 748 729 728
f 748 728 734
f 734 747 748
f 746 749 726
f 726 729 746
f 578 577 576
f 576 579 578
f 574 643 690
f 690 575 574
f 710 709 725
f 725 730 710
f 650 649 731
f 731 750 650
f 560 650 750
f 750 741 560
f 643 561 687
f 687 690 643
f 647 646 615
f 615 614 647
f 628 627 574
f 574 577 628
f 685 619 536
f 536 751 685
f 520 519 721
f 721 720 520
f 751 536 535
f 535 752 751
f 733 727 753
f 753 754 733
f 760 755 756
f 760 756 757
f 760 757 754
f 760 754 753
f 760 753 758
f 758 759 760
f 738 732 609
f 609 735 738
f 726 749 759
f 759 758 726
f 727 726 758
f 758 753 727
f 717 739 653
f 653 737 717
f 707 583 529
f 529 528 707
f 519 717 737
f 737 721 519
f 622 621 723
f 723 709 622
f 648 706 592
f 592 595 648
f 517 685 751
f 751 518 517
f 669 678 685
f 685 517 669
f 599 679 678
f 678 669 599
f 674 667 523
f 523 671 674
f 675 568 656
f 656 676 675
f 676 656 659
f 659 673 676
f 565 677 679
f 679 599 565
f 677 565 568
f 568 675 677
f 671 523 526
f 526 672 671
f 518 751 752
f 752 697 518
f 673 659 667
f 667 674 673
f 567 691 694
f 694 657 567
f 657 694 693
f 693 658 657
f 658 693 700
f 700 668 658
f 668 700 705
f 705 524 668
f 600 701 692
f 692 566 600
f 670 695 701
f 701 600 670
f 516 696 695
f 695 670 516
f 515 681 696
f 696 516 515
f 704 525 524
f 524 705 704
f 691 567 566
f 566 692 691
f 681 515 698
f 698 682 681
f 677 569 572
f 572 679 677
f 654 715 761
f 654 761 755
f 654 755 552
f 654 552 680
f 680 682 698
f 680 698 697
f 680 697 752
f 680 752 535
f 680 535 538
f 680 538 654
f 714 713 762
f 762 763 714
f 755 761 764
f 764 756 755
f 715 714 763
f 715 763 764
f 764 761 715
f 579 576 718
f 718 522 579
f 575 690 689
f 689 740 575
f 757 756 764
f 757 764 763
f 757 763 762
f 762 765 757
f 754 757 765
f 765 733 754
f 683 529 583
f 583 582 683
f 719 707 528
f 528 642 719
f 739 719 642
f 642 653 739
f 766 760 759
f 759 749 766
f 768 630 634
f 634 767 768
f 596 556 555
f 555 558 596
f 576 575 740
f 740 718 576
f 631 630 768
f 768 769 631
f 553 645 601
f 601 554 553
f 644 708 646
f 646 602 644
f 589 631 769
f 769 586 589
f 597 605 590
f 590 532 597
f 634 636 770
f 770 767 634
f 636 638 771
f 771 770 636
f 638 651 772
f 772 771 638
f 543 552 755
f 543 755 760
f 543 760 766
f 543 766 772
f 543 772 651
f 543 651 652
f 543 652 666
f 543 666 672
f 543 672 526
f 543 526 525
f 543 525 704
f 704 703 543
f 741 750 585
f 585 584 741
f 750 731 722
f 722 585 750
f 731 730 611
f 611 722 731
f 730 725 608
f 608 611 730
f 522 521 580
f 580 579 522
f 584 688 687
f 687 741 584
f 736 608 725
f 725 724 736
f 557 530 529
f 529 683 557
f 773 742 716
f 773 716 712
f 773 712 711
f 711 738 735
f 711 735 736
f 711 736 724
f 711 724 723
f 711 723 621
f 711 621 744
f 711 744 773
f 762 713 743
f 743 774 762
f 775 773 744
f 744 748 775
f 774 743 742
f 742 773 775
f 742 775 774
f 775 748 747
f 747 765 762
f 747 762 774
f 747 774 775
f 765 747 734
f 734 733 765
f 746 745 766
f 766 749 746
f 644 645 768
f 768 767 644
f 768 645 553
f 553 769 768
f 769 553 556
f 556 586 769
f 770 708 644
f 644 767 770
f 771 641 708
f 708 770 771
f 772 640 641
f 641 771 772
f 744 621 620
f 620 581 580
f 620 580 521
f 620 521 520
f 620 520 720
f 620 720 613
f 620 613 612
f 620 612 640
f 620 640 772
f 620 772 766
f 620 766 745
f 620 745 744
