# Blender 5.1.2
# www.blender.org
mtllib teszt.mtl
o Cylinder
v 0.157930 -0.207701 -0.337561
v -0.172789 0.334013 -0.337561
v 0.261582 -0.144421 -0.313404
v -0.069137 0.397293 -0.313404
v 0.349454 -0.090774 -0.244613
v 0.018735 0.450939 -0.244613
v 0.408168 -0.054929 -0.141659
v 0.077449 0.486785 -0.141659
v 0.428786 -0.042341 -0.020217
v 0.098067 0.499372 -0.020217
v 0.408168 -0.054929 0.101226
v 0.077449 0.486785 0.101226
v 0.349454 -0.090774 0.204179
v 0.018735 0.450939 0.204179
v 0.261582 -0.144421 0.272971
v -0.069137 0.397293 0.272971
v 0.157930 -0.207701 0.297127
v -0.172789 0.334013 0.297127
v 0.054277 -0.270981 0.272971
v -0.276442 0.270732 0.272971
v -0.033595 -0.324628 0.204179
v -0.364314 0.217086 0.204179
v -0.092309 -0.360473 0.101226
v -0.423028 0.181240 0.101226
v -0.112927 -0.373060 -0.020217
v -0.443646 0.168653 -0.020217
v -0.092309 -0.360473 -0.141659
v -0.423028 0.181240 -0.141659
v -0.033595 -0.324628 -0.244613
v -0.364314 0.217086 -0.244613
v 0.054277 -0.270981 -0.313404
v -0.276442 0.270732 -0.313404
v -0.264755 0.484652 -0.219166
v -0.199774 0.524324 -0.204022
v -0.144685 0.557956 -0.160895
v -0.107876 0.580428 -0.096351
v -0.094950 0.588319 -0.020217
v -0.107876 0.580428 0.055918
v -0.144685 0.557956 0.120461
v -0.199774 0.524324 0.163588
v -0.264755 0.484652 0.178732
v -0.329737 0.444980 0.163588
v -0.384826 0.411348 0.120462
v -0.421635 0.388876 0.055918
v -0.434561 0.380985 -0.020217
v -0.421635 0.388876 -0.096351
v -0.384826 0.411348 -0.160895
v -0.329737 0.444980 -0.204022
v -0.293797 0.532222 -0.084183
v -0.272904 0.544978 -0.079314
v -0.255192 0.555791 -0.065448
v -0.243357 0.563017 -0.044696
v -0.239201 0.565554 -0.020217
v -0.243357 0.563017 0.004262
v -0.255192 0.555791 0.025015
v -0.272904 0.544978 0.038881
v -0.293797 0.532222 0.043750
v -0.314691 0.519467 0.038881
v -0.332403 0.508653 0.025015
v -0.344238 0.501428 0.004262
v -0.348393 0.498891 -0.020217
v -0.344238 0.501428 -0.044696
v -0.332403 0.508654 -0.065448
v -0.314691 0.519467 -0.079314
v 0.458446 -0.699944 -0.251203
v 0.533892 -0.653883 -0.233620
v 0.597852 -0.614836 -0.183549
v 0.640588 -0.588745 -0.108611
v 0.655596 -0.579583 -0.020217
v 0.640588 -0.588745 0.068178
v 0.597852 -0.614836 0.143115
v 0.533892 -0.653883 0.193187
v 0.458447 -0.699944 0.210769
v 0.383000 -0.746004 0.193187
v 0.319041 -0.785052 0.143115
v 0.276304 -0.811142 0.068178
v 0.261297 -0.820304 -0.020217
v 0.276304 -0.811142 -0.108611
v 0.319041 -0.785052 -0.183549
v 0.383000 -0.746003 -0.233620
v 0.748032 -1.174281 -0.224333
v 0.814701 -1.133579 -0.208795
v 0.871220 -1.099073 -0.164549
v 0.908986 -1.076017 -0.098329
v 0.922247 -1.067921 -0.020217
v 0.908986 -1.076017 0.057895
v 0.871220 -1.099073 0.124115
v 0.814701 -1.133579 0.168362
v 0.748032 -1.174281 0.183899
v 0.681362 -1.214983 0.168362
v 0.624843 -1.249488 0.124115
v 0.587077 -1.272544 0.057895
v 0.573816 -1.280640 -0.020217
v 0.587077 -1.272544 -0.098329
v 0.624843 -1.249488 -0.164549
v 0.681362 -1.214983 -0.208795
v 1.402860 -2.246880 -0.125592
v 1.437278 -2.225868 -0.117570
v 1.466456 -2.208055 -0.094728
v 1.485952 -2.196152 -0.060542
v 1.492798 -2.191972 -0.020217
v 1.485952 -2.196152 0.020109
v 1.466456 -2.208055 0.054295
v 1.437278 -2.225868 0.077137
v 1.402860 -2.246880 0.085158
v 1.368442 -2.267893 0.077137
v 1.339263 -2.285706 0.054295
v 1.319767 -2.297608 0.020109
v 1.312921 -2.301788 -0.020217
v 1.319767 -2.297608 -0.060542
v 1.339263 -2.285706 -0.094728
v 1.368442 -2.267893 -0.117570
v 0.123983 -0.152097 -0.393069
v -0.138843 0.278408 -0.393069
v 0.245766 -0.077747 -0.364687
v -0.017060 0.352758 -0.364687
v 0.349008 -0.014717 -0.283863
v 0.086183 0.415788 -0.283863
v 0.417993 0.027398 -0.162901
v 0.155167 0.457903 -0.162901
v 0.442217 0.042187 -0.020217
v 0.179391 0.472692 -0.020217
v 0.417993 0.027398 0.122468
v 0.155167 0.457903 0.122468
v 0.349008 -0.014717 0.243430
v 0.086183 0.415788 0.243430
v 0.245766 -0.077747 0.324254
v -0.017060 0.352758 0.324254
v 0.123983 -0.152097 0.352636
v -0.138843 0.278409 0.352636
v 0.002201 -0.226446 0.324254
v -0.260626 0.204059 0.324254
v -0.101042 -0.289476 0.243430
v -0.363868 0.141029 0.243430
v -0.170027 -0.331591 0.122468
v -0.432852 0.098914 0.122468
v -0.194251 -0.346380 -0.020217
v -0.457077 0.084125 -0.020217
v -0.170027 -0.331591 -0.162901
v -0.432852 0.098914 -0.162901
v -0.101042 -0.289476 -0.283863
v -0.363868 0.141029 -0.283863
v 0.002201 -0.226446 -0.364687
v -0.260625 0.204060 -0.364687
v -0.078776 0.180020 -0.392862
v 0.057307 0.222654 -0.364497
v 0.172673 0.258797 -0.283717
v 0.249758 0.282947 -0.162822
v 0.276827 0.291427 -0.020217
v 0.249758 0.282947 0.122389
v 0.172673 0.258797 0.243284
v 0.057307 0.222654 0.324063
v -0.078776 0.180020 0.352429
v -0.214859 0.137387 0.324063
v -0.330225 0.101244 0.243284
v -0.407310 0.077094 0.122389
v -0.434379 0.068613 -0.020217
v -0.407310 0.077094 -0.162822
v -0.330225 0.101244 -0.283717
v -0.214859 0.137387 -0.364497
v 0.078586 0.188719 -0.364497
v 0.192575 0.227897 -0.283717
v 0.268741 0.254075 -0.162822
v 0.295487 0.263267 -0.020217
v 0.268741 0.254075 0.122389
v 0.192575 0.227897 0.243284
v 0.078586 0.188719 0.324063
v -0.055874 0.142506 0.352429
v -0.190333 0.096293 0.324063
v -0.304322 0.057115 0.243284
v -0.380487 0.030938 0.122389
v -0.407233 0.021745 -0.020217
v -0.380487 0.030938 -0.162822
v -0.304322 0.057115 -0.283717
v -0.190332 0.096293 -0.364497
v -0.055874 0.142506 -0.392862
v -0.056050 0.142794 -0.387141
v -0.078600 0.179732 -0.387141
v -0.212594 0.137753 -0.359211
v -0.326189 0.102165 -0.279672
v -0.402091 0.078386 -0.160633
v -0.428743 0.070036 -0.020217
v -0.402091 0.078386 0.120199
v -0.326189 0.102165 0.239238
v -0.212594 0.137753 0.318777
v -0.078600 0.179732 0.346708
v 0.055394 0.221711 0.318777
v 0.168989 0.257299 0.239238
v 0.244890 0.281079 0.120199
v 0.271544 0.289429 -0.020217
v 0.244890 0.281079 -0.160633
v 0.168989 0.257299 -0.279672
v 0.055394 0.221711 -0.359211
v 0.076345 0.188298 -0.359211
v 0.188585 0.226874 -0.279672
v 0.263581 0.252650 -0.160633
v 0.289917 0.261701 -0.020217
v 0.263581 0.252650 0.120199
v 0.188585 0.226874 0.239238
v 0.076345 0.188298 0.318777
v -0.056050 0.142794 0.346708
v -0.188444 0.097290 0.318777
v -0.300683 0.058714 0.239238
v -0.375679 0.032938 0.120199
v -0.402015 0.023887 -0.020217
v -0.375679 0.032938 -0.160633
v -0.300683 0.058714 -0.279672
v -0.188444 0.097290 -0.359211
v 0.169549 0.036317 -0.356436
v 0.260307 0.110662 -0.277547
v 0.320949 0.160337 -0.159483
v 0.342243 0.177781 -0.020217
v 0.320949 0.160337 0.119050
v 0.260307 0.110662 0.237114
v 0.169549 0.036317 0.316002
v 0.062494 -0.051378 0.343704
v -0.044561 -0.139073 0.316002
v -0.135319 -0.213418 0.237114
v -0.195961 -0.263094 0.119050
v -0.217255 -0.280537 -0.020217
v -0.195961 -0.263094 -0.159483
v -0.135319 -0.213418 -0.277547
v -0.044561 -0.139073 -0.356436
v 0.062494 -0.051378 -0.384137
v 0.045872 -0.024152 -0.386855
v 0.157158 0.058176 -0.358947
v 0.251503 0.127971 -0.279469
v 0.314543 0.174606 -0.160523
v 0.336679 0.190982 -0.020217
v 0.314543 0.174606 0.120090
v 0.251503 0.127971 0.239036
v 0.157158 0.058176 0.318513
v 0.045872 -0.024152 0.346422
v -0.065414 -0.106480 0.318513
v -0.159759 -0.176275 0.239036
v -0.222798 -0.222910 0.120090
v -0.244935 -0.239286 -0.020217
v -0.222798 -0.222910 -0.160523
v -0.159759 -0.176275 -0.279469
v -0.065414 -0.106480 -0.358947
v 0.154131 0.055011 -0.348547
v 0.166648 0.034898 -0.348547
v 0.245580 0.122663 -0.271510
v 0.255276 0.107498 -0.271510
v 0.306684 0.167866 -0.156216
v 0.314496 0.156008 -0.156216
v 0.328140 0.183740 -0.020217
v 0.335291 0.173042 -0.020217
v 0.306684 0.167866 0.115782
v 0.314496 0.156008 0.115782
v 0.245580 0.122663 0.231077
v 0.255276 0.107498 0.231077
v 0.154131 0.055011 0.308114
v 0.166648 0.034898 0.308114
v 0.046262 -0.024790 0.335166
v 0.062104 -0.050740 0.335166
v -0.061608 -0.104591 0.308114
v -0.042439 -0.136378 0.308114
v -0.153057 -0.172242 0.231077
v -0.131067 -0.208979 0.231077
v -0.214160 -0.217446 0.115782
v -0.190287 -0.257489 0.115782
v -0.235617 -0.233319 -0.020217
v -0.211082 -0.274523 -0.020217
v -0.214160 -0.217446 -0.156216
v -0.190287 -0.257489 -0.156216
v -0.153057 -0.172242 -0.271510
v -0.131067 -0.208979 -0.271510
v -0.061608 -0.104590 -0.348547
v -0.042439 -0.136378 -0.348547
v 0.062104 -0.050740 -0.375599
v 0.046262 -0.024790 -0.375599
v 0.012358 0.030744 -0.397572
v -0.022359 0.087610 -0.399622
v 0.107371 0.147239 -0.370741
v 0.134181 0.102696 -0.368848
v 0.217353 0.197789 -0.288496
v 0.237460 0.163693 -0.287047
v 0.290840 0.231566 -0.165409
v 0.306468 0.204450 -0.164624
v 0.316645 0.243427 -0.020217
v 0.330700 0.218763 -0.020217
v 0.290840 0.231566 0.124975
v 0.306468 0.204450 0.124191
v 0.217353 0.197789 0.248063
v 0.237460 0.163693 0.246614
v 0.107371 0.147239 0.330308
v 0.134181 0.102696 0.328414
v -0.022359 0.087610 0.359188
v 0.012358 0.030744 0.357139
v -0.152090 0.027981 0.330308
v -0.109466 -0.041207 0.328414
v -0.262071 -0.022569 0.248063
v -0.212744 -0.102205 0.246614
v -0.335558 -0.056346 0.124975
v -0.281753 -0.142962 0.124191
v -0.361363 -0.068207 -0.020217
v -0.305984 -0.157274 -0.020217
v -0.335558 -0.056346 -0.165409
v -0.281753 -0.142962 -0.164624
v -0.262071 -0.022569 -0.288496
v -0.212744 -0.102205 -0.287047
v -0.152090 0.027981 -0.370741
v -0.109466 -0.041207 -0.368848
v 0.209843 -0.019167 -0.367064
v 0.308697 0.050833 -0.285682
v 0.374748 0.097605 -0.163885
v 0.397943 0.114029 -0.020217
v 0.374748 0.097605 0.123452
v 0.308697 0.050833 0.245249
v 0.209843 -0.019167 0.326631
v 0.093238 -0.101737 0.355208
v -0.023366 -0.184307 0.326631
v -0.122220 -0.254307 0.245249
v -0.188272 -0.301080 0.123452
v -0.211466 -0.317504 -0.020217
v -0.188272 -0.301080 -0.163885
v -0.122220 -0.254307 -0.285682
v -0.023366 -0.184307 -0.367064
v 0.093238 -0.101737 -0.395642
v -0.108809 0.229214 -0.399763
v 0.022474 0.288772 -0.370872
v 0.133772 0.339263 -0.288596
v 0.208138 0.373000 -0.165463
v 0.234252 0.384846 -0.020217
v 0.208138 0.373000 0.125029
v 0.133772 0.339263 0.248163
v 0.022474 0.288772 0.330438
v -0.108809 0.229214 0.359329
v -0.240094 0.169657 0.330438
v -0.351390 0.119166 0.248163
v -0.425757 0.085429 0.125029
v -0.451871 0.073582 -0.020217
v -0.425757 0.085429 -0.165463
v -0.351390 0.119166 -0.288596
v -0.240093 0.169657 -0.370872
s 0
usemtl Material.004
f 6 36 8
f 13 70 11
f 45 62 46
f 16 41 18
f 4 33 34
f 26 46 28
f 14 38 39
f 22 44 24
f 2 48 33
f 8 37 10
f 18 42 20
f 30 46 47
f 6 34 35
f 14 40 16
f 26 44 45
f 12 37 38
f 20 43 22
f 32 47 48
f 59 55 51
f 39 54 55
f 47 62 63
f 39 56 40
f 47 64 48
f 40 57 41
f 34 49 50
f 33 64 49
f 42 57 58
f 35 50 51
f 42 59 43
f 35 52 36
f 44 59 60
f 36 53 37
f 45 60 61
f 38 53 54
f 73 88 72
f 21 76 75
f 31 65 80
f 9 68 7
f 19 73 17
f 27 79 78
f 3 67 66
f 15 71 13
f 25 76 23
f 9 70 69
f 21 74 19
f 29 80 79
f 7 67 5
f 15 73 72
f 3 65 1
f 25 78 77
f 93 110 109
f 65 82 81
f 80 81 96
f 73 90 89
f 67 82 66
f 75 90 74
f 67 84 83
f 75 92 91
f 68 85 84
f 77 92 76
f 69 86 85
f 78 93 77
f 71 86 70
f 79 94 78
f 72 87 71
f 80 95 79
f 104 108 112
f 86 103 102
f 95 110 94
f 88 103 87
f 96 111 95
f 89 104 88
f 81 98 97
f 81 112 96
f 90 105 89
f 83 98 82
f 91 106 90
f 84 99 83
f 92 107 91
f 84 101 100
f 93 108 92
f 86 101 85
f 6 35 36
f 13 71 70
f 45 61 62
f 16 40 41
f 4 2 33
f 26 45 46
f 14 12 38
f 22 43 44
f 2 32 48
f 8 36 37
f 18 41 42
f 30 28 46
f 6 4 34
f 14 39 40
f 26 24 44
f 12 10 37
f 20 42 43
f 32 30 47
f 51 50 49
f 49 64 63
f 63 62 61
f 61 60 59
f 59 58 57
f 57 56 55
f 55 54 53
f 53 52 51
f 51 49 63
f 63 61 59
f 59 57 55
f 55 53 51
f 51 63 59
f 39 38 54
f 47 46 62
f 39 55 56
f 47 63 64
f 40 56 57
f 34 33 49
f 33 48 64
f 42 41 57
f 35 34 50
f 42 58 59
f 35 51 52
f 44 43 59
f 36 52 53
f 45 44 60
f 38 37 53
f 73 89 88
f 21 23 76
f 31 1 65
f 9 69 68
f 19 74 73
f 27 29 79
f 3 5 67
f 15 72 71
f 25 77 76
f 9 11 70
f 21 75 74
f 29 31 80
f 7 68 67
f 15 17 73
f 3 66 65
f 25 27 78
f 93 94 110
f 65 66 82
f 80 65 81
f 73 74 90
f 67 83 82
f 75 91 90
f 67 68 84
f 75 76 92
f 68 69 85
f 77 93 92
f 69 70 86
f 78 94 93
f 71 87 86
f 79 95 94
f 72 88 87
f 80 96 95
f 112 97 98
f 98 99 100
f 100 101 102
f 102 103 104
f 104 105 106
f 106 107 108
f 108 109 110
f 110 111 112
f 112 98 100
f 100 102 104
f 104 106 108
f 108 110 112
f 112 100 104
f 86 87 103
f 95 111 110
f 88 104 103
f 96 112 111
f 89 105 104
f 81 82 98
f 81 97 112
f 90 106 105
f 83 99 98
f 91 107 106
f 84 100 99
f 92 108 107
f 84 85 101
f 93 109 108
f 86 102 101
usemtl Material.005
f 18 128 16
f 17 127 129
f 26 136 24
f 6 120 118
f 25 135 137
f 7 117 119
f 2 144 32
f 16 126 14
f 1 143 113
f 13 127 15
f 22 136 134
f 4 118 116
f 23 133 135
f 5 115 117
f 32 142 30
f 14 124 12
f 321 116 322
f 322 118 323
f 323 120 324
f 324 122 325
f 122 326 325
f 124 327 326
f 126 328 327
f 128 329 328
f 130 330 329
f 132 331 330
f 134 332 331
f 136 333 332
f 333 140 334
f 334 142 335
f 335 144 336
f 336 114 321
f 9 119 121
f 27 137 139
f 10 120 8
f 28 138 26
f 17 131 19
f 20 130 18
f 9 123 11
f 29 139 141
f 1 115 3
f 12 122 10
f 30 140 28
f 4 114 2
f 19 133 21
f 20 134 132
f 11 125 13
f 31 141 143
f 156 182 183
f 172 206 173
f 158 182 157
f 172 204 205
f 159 181 158
f 171 203 204
f 146 178 145
f 160 180 159
f 170 202 203
f 147 193 146
f 145 179 160
f 169 201 202
f 148 192 147
f 168 200 201
f 149 191 148
f 167 199 200
f 274 161 275
f 275 162 277
f 277 163 279
f 279 164 281
f 164 283 281
f 165 285 283
f 166 287 285
f 167 289 287
f 168 291 289
f 169 293 291
f 170 295 293
f 171 297 295
f 297 173 299
f 299 174 301
f 301 175 303
f 303 176 274
f 173 207 174
f 155 183 184
f 176 194 161
f 174 208 175
f 154 184 185
f 161 195 162
f 175 177 176
f 153 185 186
f 162 196 163
f 152 186 187
f 163 197 164
f 151 187 188
f 165 197 198
f 150 188 189
f 166 198 199
f 149 189 190
f 223 320 319
f 222 319 318
f 221 318 317
f 220 317 316
f 315 220 316
f 314 219 315
f 313 218 314
f 312 217 313
f 311 216 312
f 310 215 311
f 309 214 310
f 308 213 309
f 211 308 307
f 210 307 306
f 209 306 305
f 224 305 320
f 213 252 214
f 237 261 236
f 214 254 215
f 237 265 263
f 215 256 216
f 238 267 265
f 216 258 217
f 225 241 272
f 239 269 267
f 217 260 218
f 227 241 226
f 240 272 269
f 218 262 219
f 228 243 227
f 220 262 264
f 229 245 228
f 236 259 235
f 212 250 213
f 235 257 234
f 212 246 248
f 234 255 233
f 211 244 246
f 233 253 232
f 224 270 271
f 210 242 244
f 231 253 251
f 223 268 270
f 209 271 242
f 230 251 249
f 222 266 268
f 229 249 247
f 220 266 221
f 304 225 240
f 304 274 273
f 302 240 239
f 302 303 304
f 300 239 238
f 300 301 302
f 298 238 237
f 298 299 300
f 236 298 237
f 295 298 296
f 235 296 236
f 293 296 294
f 234 294 235
f 291 294 292
f 233 292 234
f 289 292 290
f 232 290 233
f 287 290 288
f 231 288 232
f 285 288 286
f 230 286 231
f 283 286 284
f 229 284 230
f 281 284 282
f 280 229 228
f 280 281 282
f 278 228 227
f 278 279 280
f 276 227 226
f 276 277 278
f 273 226 225
f 273 275 276
f 320 115 113
f 305 117 115
f 306 119 117
f 119 308 121
f 308 123 121
f 123 310 125
f 125 311 127
f 127 312 129
f 129 313 131
f 131 314 133
f 133 315 135
f 135 316 137
f 316 139 137
f 317 141 139
f 318 143 141
f 319 113 143
f 160 321 145
f 159 336 160
f 158 335 159
f 157 334 158
f 332 157 156
f 331 156 155
f 330 155 154
f 329 154 153
f 328 153 152
f 327 152 151
f 326 151 150
f 325 150 149
f 148 325 149
f 147 324 148
f 146 323 147
f 145 322 146
f 18 130 128
f 17 15 127
f 26 138 136
f 6 8 120
f 25 23 135
f 7 5 117
f 2 114 144
f 16 128 126
f 1 31 143
f 13 125 127
f 22 24 136
f 4 6 118
f 23 21 133
f 5 3 115
f 32 144 142
f 14 126 124
f 321 114 116
f 322 116 118
f 323 118 120
f 324 120 122
f 122 124 326
f 124 126 327
f 126 128 328
f 128 130 329
f 130 132 330
f 132 134 331
f 134 136 332
f 136 138 333
f 333 138 140
f 334 140 142
f 335 142 144
f 336 144 114
f 9 7 119
f 27 25 137
f 10 122 120
f 28 140 138
f 17 129 131
f 20 132 130
f 9 121 123
f 29 27 139
f 1 113 115
f 12 124 122
f 30 142 140
f 4 116 114
f 19 131 133
f 20 22 134
f 11 123 125
f 31 29 141
f 156 157 182
f 172 205 206
f 158 181 182
f 172 171 204
f 159 180 181
f 171 170 203
f 146 193 178
f 160 179 180
f 170 169 202
f 147 192 193
f 145 178 179
f 169 168 201
f 148 191 192
f 168 167 200
f 149 190 191
f 167 166 199
f 274 176 161
f 275 161 162
f 277 162 163
f 279 163 164
f 164 165 283
f 165 166 285
f 166 167 287
f 167 168 289
f 168 169 291
f 169 170 293
f 170 171 295
f 171 172 297
f 297 172 173
f 299 173 174
f 301 174 175
f 303 175 176
f 173 206 207
f 155 156 183
f 176 177 194
f 174 207 208
f 154 155 184
f 161 194 195
f 175 208 177
f 153 154 185
f 162 195 196
f 152 153 186
f 163 196 197
f 151 152 187
f 165 164 197
f 150 151 188
f 166 165 198
f 149 150 189
f 223 224 320
f 222 223 319
f 221 222 318
f 220 221 317
f 315 219 220
f 314 218 219
f 313 217 218
f 312 216 217
f 311 215 216
f 310 214 215
f 309 213 214
f 308 212 213
f 211 212 308
f 210 211 307
f 209 210 306
f 224 209 305
f 213 250 252
f 237 263 261
f 214 252 254
f 237 238 265
f 215 254 256
f 238 239 267
f 216 256 258
f 225 226 241
f 239 240 269
f 217 258 260
f 227 243 241
f 240 225 272
f 218 260 262
f 228 245 243
f 220 219 262
f 229 247 245
f 236 261 259
f 212 248 250
f 235 259 257
f 212 211 246
f 234 257 255
f 211 210 244
f 233 255 253
f 224 223 270
f 210 209 242
f 231 232 253
f 223 222 268
f 209 224 271
f 230 231 251
f 222 221 266
f 229 230 249
f 220 264 266
f 304 273 225
f 304 303 274
f 302 304 240
f 302 301 303
f 300 302 239
f 300 299 301
f 298 300 238
f 298 297 299
f 236 296 298
f 295 297 298
f 235 294 296
f 293 295 296
f 234 292 294
f 291 293 294
f 233 290 292
f 289 291 292
f 232 288 290
f 287 289 290
f 231 286 288
f 285 287 288
f 230 284 286
f 283 285 286
f 229 282 284
f 281 283 284
f 280 282 229
f 280 279 281
f 278 280 228
f 278 277 279
f 276 278 227
f 276 275 277
f 273 276 226
f 273 274 275
f 320 305 115
f 305 306 117
f 306 307 119
f 119 307 308
f 308 309 123
f 123 309 310
f 125 310 311
f 127 311 312
f 129 312 313
f 131 313 314
f 133 314 315
f 135 315 316
f 316 317 139
f 317 318 141
f 318 319 143
f 319 320 113
f 160 336 321
f 159 335 336
f 158 334 335
f 157 333 334
f 332 333 157
f 331 332 156
f 330 331 155
f 329 330 154
f 328 329 153
f 327 328 152
f 326 327 151
f 325 326 150
f 148 324 325
f 147 323 324
f 146 322 323
f 145 321 322
usemtl Material.006
f 208 178 177
f 207 179 208
f 206 180 207
f 205 181 206
f 183 205 204
f 184 204 203
f 185 203 202
f 186 202 201
f 187 201 200
f 188 200 199
f 189 199 198
f 190 198 197
f 196 190 197
f 195 191 196
f 194 192 195
f 177 193 194
f 269 271 270
f 267 270 268
f 265 268 266
f 263 266 264
f 262 263 264
f 260 261 262
f 258 259 260
f 256 257 258
f 254 255 256
f 252 253 254
f 250 251 252
f 248 249 250
f 245 248 246
f 243 246 244
f 241 244 242
f 272 242 271
f 208 179 178
f 207 180 179
f 206 181 180
f 205 182 181
f 183 182 205
f 184 183 204
f 185 184 203
f 186 185 202
f 187 186 201
f 188 187 200
f 189 188 199
f 190 189 198
f 196 191 190
f 195 192 191
f 194 193 192
f 177 178 193
f 269 272 271
f 267 269 270
f 265 267 268
f 263 265 266
f 262 261 263
f 260 259 261
f 258 257 259
f 256 255 257
f 254 253 255
f 252 251 253
f 250 249 251
f 248 247 249
f 245 247 248
f 243 245 246
f 241 243 244
f 272 241 242
